<?xml version="1.0" encoding="UTF-8"?>
<svg width="137px" height="25px" viewBox="0 0 137 25" version="1.1" xmlns="http://www.w3.org/2000/svg" xmlns:xlink="http://www.w3.org/1999/xlink">
    <!-- Generator: Sketch 41 (35326) - http://www.bohemiancoding.com/sketch -->
    <title>Goodwall Web Logo</title>
    <desc>Created with Sketch.</desc>
    <defs>
        <path d="M12.5,0 C19.403,0 25,5.597 25,12.5 C25,19.403 19.403,25 12.5,25 C5.597,25 0,19.403 0,12.5 C0,5.597 5.597,0 12.5,0" id="path-1"></path>
        <path d="M12.5,0 C19.403,0 25,5.597 25,12.5 C25,19.403 19.403,25 12.5,25 C5.597,25 0,19.403 0,12.5 C0,5.597 5.597,0 12.5,0" id="path-3"></path>
    </defs>
    <g id="Page-1" stroke="none" stroke-width="1" fill="none" fill-rule="evenodd">
        <g id="Goodwall-Web-Logo">
            <g id="Group">
                <g id="Clipped">
                    <mask id="mask-2" fill="white">
                        <use xlink:href="#path-1"></use>
                    </mask>
                    <g id="SVGID_1_"></g>
                    <path d="M12.5,0 C19.403,0 25,5.597 25,12.5 C25,19.403 19.403,25 12.5,25 C5.597,25 0,19.403 0,12.5 C0,5.597 5.597,0 12.5,0" id="Shape" fill="#906F8E" mask="url(#mask-2)"></path>
                </g>
                <g id="Clipped">
                    <mask id="mask-4" fill="white">
                        <use xlink:href="#path-3"></use>
                    </mask>
                    <g id="SVGID_1_"></g>
                    <g id="Group" mask="url(#mask-4)">
                        <g transform="translate(-8.000000, 5.000000)" id="Shape">
                            <path d="M29.058,14.978 C30.34,18.944 32.995,26.79 33.665,29.144 C34.857,33.335 34.423,36.159 30.353,38.615 L24.233,19.058 C24.233,19.058 26.934,8.407 29.058,14.978 Z" fill="#312C30"></path>
                            <path d="M12.391,4.001 C10.146,9.6 13.753,23.604 8.46,44.618 L19.075,44.594 C19.097,44.47 25.093,11.243 23.117,7.527 C23.117,7.527 21.484,4.628 21.91,3.014 C24.995,0.252 26.233,0.826 26.233,0.826 C26.233,0.826 26.767,-0.788 19.871,1.392 C17.703,0.684 14.107,2.821 12.391,4.001 Z" fill="#312C30"></path>
                            <path d="M20.713,2.189 C19.888,2.763 19.222,2.589 19.222,2.589 C19.222,2.589 20.043,3.333 21.911,3.013 C24.126,1.112 25.684,0.616 26.234,0.825 C25.851,0.371 23.388,0.33 20.713,2.189 Z" fill="#FFB401"></path>
                            <path d="M23.118,7.527 C23.118,7.527 18.94,10.27 15.041,6.793 C13.622,7.001 13.495,10.408 15.399,12.953 C15.399,12.953 19.833,15.245 22.362,13.675 C24.892,12.106 24.424,8.379 23.989,8.075 C23.555,7.77 23.118,7.527 23.118,7.527 Z" fill="#FFB401"></path>
                            <path d="M23.27,44.742 L11.818,44.769 L14.114,23.583 C14.114,23.583 16.618,15.016 15.053,12.438 C14.661,11.793 14.43,11.213 14.314,10.693 C14.021,8.041 15.051,7.76 15.051,7.76 C19.243,11.248 23.991,8.073 23.991,8.073 C27.908,10.699 29.787,13.359 29.853,19.231 C29.882,21.848 29.598,25.646 28.706,34.772 C27.812,43.9 26.146,44.736 23.27,44.742 Z" fill="#F2EDE6"></path>
                            <path d="M17.917,1.974 C17.707,1.974 17.537,2.16 17.537,2.37 C17.537,2.46 17.57,2.543 17.622,2.622 L18.214,2.621 C18.266,2.542 18.298,2.459 18.298,2.369 C18.298,2.159 18.127,1.974 17.917,1.974 Z" fill="#FFFFFF"></path>
                            <path d="M17.917,1.974 C17.707,1.974 17.537,2.16 17.537,2.37 C17.537,2.46 17.57,2.543 17.622,2.622 L18.214,2.621 C18.266,2.542 18.298,2.459 18.298,2.369 C18.298,2.159 18.127,1.974 17.917,1.974 Z" fill="#FFFFFF"></path>
                            <path d="M0.891,37.741 L12.46,13.153 L14.657,11.801 C15.862,13.727 17.201,15.346 17.262,17.651 C17.324,19.957 12.932,28.075 10.602,33.034 C8.272,37.992 2.499,37.925 0.891,37.741 Z" fill="#312C30"></path>
                        </g>
                    </g>
                </g>
            </g>
            <path d="M41.14,16.939 C40.58,18.5 39.507,19.279 37.92,19.279 C36.294,19.279 34.953,18.666 33.9,17.439 C32.807,16.173 32.26,14.552 32.26,12.58 C32.26,10.5 32.847,8.833 34.02,7.58 C35.153,6.367 36.613,5.76 38.4,5.76 C39.613,5.76 40.63,6.024 41.45,6.55 C42.27,7.077 42.913,7.907 43.38,9.04 L40.96,9.6 C40.253,8.467 39.36,7.9 38.28,7.9 C37.294,7.9 36.473,8.32 35.82,9.16 C35.14,10.013 34.8,11.153 34.8,12.58 C34.8,13.927 35.107,15.019 35.72,15.859 C36.32,16.686 37.12,17.099 38.12,17.099 C38.973,17.099 39.673,16.826 40.22,16.279 C40.78,15.72 41.06,14.953 41.06,13.98 L41.06,13.9 L38.14,13.839 L38.14,12.319 L43.32,12.319 L43.32,19 L41.4,19 L41.14,16.939 Z M51.7,5.76 C52.567,5.76 53.36,5.904 54.08,6.19 C54.8,6.477 55.42,6.9 55.94,7.46 C57.033,8.633 57.58,10.314 57.58,12.5 C57.58,14.7 57.033,16.4 55.94,17.6 C54.9,18.721 53.48,19.28 51.68,19.28 C49.893,19.28 48.48,18.708 47.44,17.561 C46.347,16.373 45.8,14.687 45.8,12.5 C45.8,10.287 46.347,8.593 47.44,7.42 C48.467,6.313 49.887,5.76 51.7,5.76 Z M54.21,9.09 C53.59,8.283 52.753,7.88 51.7,7.88 C50.646,7.88 49.806,8.283 49.18,9.09 C48.553,9.897 48.24,11.044 48.24,12.53 C48.24,14.017 48.553,15.156 49.18,15.95 C49.806,16.743 50.646,17.14 51.7,17.14 C52.753,17.14 53.59,16.743 54.21,15.95 C54.83,15.156 55.14,14.016 55.14,12.53 C55.14,11.043 54.83,9.896 54.21,9.09 Z M65.36,5.76 C66.227,5.76 67.02,5.904 67.74,6.19 C68.46,6.477 69.08,6.9 69.599,7.46 C70.693,8.633 71.24,10.314 71.24,12.5 C71.24,14.7 70.693,16.4 69.599,17.6 C68.559,18.721 67.14,19.28 65.339,19.28 C63.552,19.28 62.139,18.708 61.099,17.561 C60.006,16.373 59.459,14.687 59.459,12.5 C59.459,10.287 60.006,8.593 61.099,7.42 C62.126,6.313 63.547,5.76 65.36,5.76 Z M67.87,9.09 C67.25,8.283 66.413,7.88 65.36,7.88 C64.307,7.88 63.467,8.283 62.84,9.09 C62.214,9.897 61.9,11.044 61.9,12.53 C61.9,14.017 62.213,15.156 62.84,15.95 C63.467,16.743 64.307,17.14 65.36,17.14 C66.413,17.14 67.25,16.743 67.87,15.95 C68.49,15.156 68.8,14.016 68.8,12.53 C68.8,11.043 68.49,9.896 67.87,9.09 Z M78.24,6.02 C80.213,6.02 81.806,6.606 83.019,7.78 C84.246,8.953 84.859,10.533 84.859,12.52 C84.859,14.493 84.246,16.066 83.019,17.24 C81.807,18.413 80.213,19 78.24,19 L74.02,19 L74.02,6.02 L78.24,6.02 Z M76.4,16.859 L78.24,16.859 C79.467,16.859 80.46,16.447 81.22,15.62 C81.939,14.82 82.299,13.787 82.299,12.52 C82.299,11.227 81.939,10.18 81.22,9.38 C80.472,8.567 79.48,8.16 78.24,8.16 L76.4,8.16 L76.4,16.859 Z M88.939,6.02 L91.799,15.88 L94.579,6.88 L96.179,6.88 L99.119,15.92 L102.159,6.02 L104.819,6.02 L100.359,19 L97.88,19 L95.44,11.68 L93.02,19 L90.54,19 L86.3,6.02 L88.939,6.02 Z M109.26,6.02 L112.221,6.02 L116.48,19 L113.98,19 L113.08,16.2 L108.26,16.2 L107.34,19 L104.84,19 L109.26,6.02 Z M108.859,14.42 L112.5,14.42 L110.7,8.84 L108.859,14.42 Z M121.141,16.939 L126.481,16.939 L126.481,19 L118.78,19 L118.78,6.02 L121.141,6.02 L121.141,16.939 L121.141,16.939 Z M131.02,16.939 L136.36,16.939 L136.36,19 L128.661,19 L128.661,6.02 L131.02,6.02 L131.02,16.939 Z" id="GOODWALL" fill="#FFFFFF"></path>
        </g>
    </g>
</svg>